<?xml version="1.0" encoding="UTF-8"?>
<svg width="651px" height="261px" viewBox="0 0 651 261" version="1.1" xmlns="http://www.w3.org/2000/svg" xmlns:xlink="http://www.w3.org/1999/xlink">
    <title>Artboard</title>
    <defs>
        <rect id="path-1" x="0" y="0" width="637" height="248" rx="10"></rect>
        <rect id="path-3" x="0" y="0" width="204" height="115" rx="10"></rect>
        <rect id="path-5" x="0" y="0" width="204" height="115" rx="10"></rect>
    </defs>
    <g id="Artboard" stroke="none" stroke-width="1" fill="none" fill-rule="evenodd">
        <g id="MyTop" transform="translate(6.000000, 7.000000)">
            <mask id="mask-2" fill="white">
                <use xlink:href="#path-1"></use>
            </mask>
            <rect stroke="#979797" stroke-width="2" x="-1" y="-1" width="639" height="250" rx="10"></rect>
            <rect id="Rectangle" fill="#D8D8D8" mask="url(#mask-2)" x="0" y="0" width="637" height="31"></rect>
            <text mask="url(#mask-2)" font-family="LucidaGrande-Bold, Lucida Grande" font-size="16" font-weight="bold" fill="#353535">
                <tspan x="287" y="19">MyTop</tspan>
            </text>
            <line x1="0.5" y1="30.5" x2="637.5" y2="30.5" id="Line-2" stroke="#979797" stroke-linecap="square" mask="url(#mask-2)"></line>
        </g>
        <path id="Line-3" d="M37.7849183,74.7166366 L39.2833634,74.7849183 L39.2492225,75.5341408 C38.8940231,83.3290154 41.2434073,91.084839 46.3149586,98.8172037 C49.6763029,103.942093 53.951512,108.302795 59.0976649,111.873355 L59.6953145,112.281835 L65.911,115.753 L61.4182242,108.409008 L61.0268214,107.76924 L62.3063587,106.986434 L62.6977614,107.626203 L68.6854276,117.413361 L69.3812548,118.550728 L68.0479275,118.554761 L56.5745052,118.589464 L55.8245086,118.591733 L55.8199716,117.09174 L56.5699682,117.089471 L65.18,117.063 L58.9109833,113.558929 C53.2801906,109.771184 48.6618118,105.130356 45.0606774,99.6398694 C39.9420583,91.8357423 37.4929924,83.9575192 37.7298914,76.0197532 L37.7507775,75.4658592 L37.7849183,74.7166366 Z" fill="#979797" fill-rule="nonzero"></path>
        <circle id="Oval" stroke="#979797" fill="#979797" cx="38.5" cy="66.5" r="8.5"></circle>
        <g id="MySub1" transform="translate(67.000000, 96.000000)">
            <mask id="mask-4" fill="white">
                <use xlink:href="#path-3"></use>
            </mask>
            <rect stroke="#979797" stroke-width="2" x="-1" y="-1" width="206" height="117" rx="10"></rect>
            <rect id="Rectangle" fill="#D8D8D8" mask="url(#mask-4)" x="0" y="0" width="204" height="115"></rect>
            <text id="entry/…" mask="url(#mask-4)" font-family="LucidaGrande, Lucida Grande" font-size="16" font-weight="normal" fill="#353535">
                <tspan x="14" y="56">entry/…</tspan>
            </text>
            <text id="exit/…" mask="url(#mask-4)" font-family="LucidaGrande, Lucida Grande" font-size="16" font-weight="normal" fill="#353535">
                <tspan x="15" y="80">exit/…</tspan>
            </text>
            <text id="Substate1" mask="url(#mask-4)" font-family="LucidaGrande-Bold, Lucida Grande" font-size="16" font-weight="bold" fill="#353535">
                <tspan x="65" y="21">Substate1</tspan>
            </text>
        </g>
        <g id="MySub2" transform="translate(395.000000, 96.000000)">
            <mask id="mask-6" fill="white">
                <use xlink:href="#path-5"></use>
            </mask>
            <rect stroke="#979797" stroke-width="2" x="-1" y="-1" width="206" height="117" rx="10"></rect>
            <rect id="Rectangle" fill="#D8D8D8" mask="url(#mask-6)" x="0" y="0" width="204" height="115"></rect>
            <text id="entry/…" mask="url(#mask-6)" font-family="LucidaGrande, Lucida Grande" font-size="16" font-weight="normal" fill="#353535">
                <tspan x="14" y="56">entry/…</tspan>
            </text>
            <text id="exit/…" mask="url(#mask-6)" font-family="LucidaGrande, Lucida Grande" font-size="16" font-weight="normal" fill="#353535">
                <tspan x="15" y="80">exit/…</tspan>
            </text>
            <line x1="0.5" y1="29.5" x2="204.5" y2="29.5" id="Line" stroke="#979797" stroke-linecap="square" mask="url(#mask-6)"></line>
            <text id="Substate2" mask="url(#mask-6)" font-family="LucidaGrande-Bold, Lucida Grande" font-size="16" font-weight="bold" fill="#353535">
                <tspan x="72" y="21">Substate2</tspan>
            </text>
        </g>
        <path id="Line-4" d="M381.839014,154.853622 L382.492696,155.221318 L392.492696,160.846318 L393.654797,161.5 L392.492696,162.153682 L382.492696,167.778682 L381.839014,168.146378 L381.103622,166.839014 L381.757304,166.471318 L389.262,162.25 L271.75,162.25 L271.75,160.75 L389.262,160.75 L381.757304,156.528682 L381.103622,156.160986 L381.839014,154.853622 Z" fill="#979797" fill-rule="nonzero"></path>
        <text id="evt1-[flag]" font-family="LucidaGrande, Lucida Grande" font-size="16" font-weight="normal" fill="#353535">
            <tspan x="292" y="154">evt1 [flag]</tspan>
        </text>
        <line x1="67.5" y1="125.5" x2="271.5" y2="125.5" id="Line-7" stroke="#979797" stroke-linecap="square"></line>
    </g>
</svg>